<?xml version="1.0" encoding="utf-8"?><svg viewBox="0 0 196 177" xmlns="http://www.w3.org/2000/svg" xmlns:xlink="http://www.w3.org/1999/xlink"><style>:root>svg{display:none}:root>svg:target{display:block}</style><svg fill="none" viewBox="0 0 30 30" id="arrow-icon" xmlns="http://www.w3.org/2000/svg"><path d="M5 13.737v2.526h15.151l-6.944 6.944L15 25l10-10L15 5l-1.793 1.793 6.944 6.944H5z" fill="#fff"/></svg><svg fill="none" viewBox="0 0 44 44" id="confirmation-icon" xmlns="http://www.w3.org/2000/svg"><rect x="1" y="1" width="42" height="42" rx="21" fill="#fff" stroke="#20A95A" stroke-width="2"/><mask id="ba" maskUnits="userSpaceOnUse" x="2" y="2" width="40" height="40"><rect x="2.5" y="2.5" width="39" height="39" rx="19.5" fill="#fff" stroke="#fff"/></mask><g mask="url(#ba)"><path d="M30.4 11.5L17.38 25.818l-3.78-2.863h-2.1l5.88 9.545 15.12-21h-2.1z" fill="#20A95A"/></g></svg><svg fill="none" viewBox="0 0 30 30" id="facebook-icon" xmlns="http://www.w3.org/2000/svg"><path d="M12.075 25h3.663v-9.125H18.8l.462-3.55h-3.524V10.05c0-1.025.287-1.725 1.762-1.725h1.887V5.138A26.965 26.965 0 0016.65 5c-2.725 0-4.575 1.662-4.575 4.7v2.625H9v3.55h3.075V25z" fill="#fff"/></svg><svg fill="none" viewBox="0 0 30 30" id="faq-arrow-icon" xmlns="http://www.w3.org/2000/svg"><path d="M10 21.107L15.934 15 10 8.88 11.827 7l7.773 8-7.773 8L10 21.107z" fill="#EC3E5A"/></svg><svg fill="none" viewBox="0 0 24 18" id="flag" xmlns="http://www.w3.org/2000/svg"><path fill-rule="evenodd" clip-rule="evenodd" d="M0 0h24v18H0V0z" fill="#FFD500"/><path fill-rule="evenodd" clip-rule="evenodd" d="M0 0h24v9H0V0z" fill="#005BBB"/></svg><svg fill="none" viewBox="0 0 35 35" id="live-icon" xmlns="http://www.w3.org/2000/svg"><path d="M14 25.375V9.625L24.5 17.5 14 25.375zM17.5 0a17.5 17.5 0 100 35 17.5 17.5 0 000-35z" fill="#fff"/></svg><svg fill="none" viewBox="0 0 196 177" id="logo-star" xmlns="http://www.w3.org/2000/svg"><path d="M195 167.5l-68.583-56.637L7.043 176.279 76.305 62.666 0 0h195.25L195 167.5z" fill="url(#gpaint0_linear)"/><path d="M194.749.5l-.247 165.94-67.766-55.963-.262-.216-.297.163L8.444 174.941 76.732 62.926l.226-.371-.335-.276L1.397.5h193.352z" stroke="#979797" stroke-opacity=".1"/><defs><linearGradient id="gpaint0_linear" x1="117.464" y1="67.963" x2="69.258" y2="195.723" gradientUnits="userSpaceOnUse"><stop stop-color="#F3FCFF"/><stop offset="1" stop-color="#E1E5EE"/></linearGradient></defs></svg><svg fill="none" viewBox="0 0 196 177" id="logo-star-active" xmlns="http://www.w3.org/2000/svg"><path d="M195 167.5l-68.583-56.637L7.043 176.279 76.305 62.666 0 0h195.25L195 167.5z" fill="#EC3E5A"/></svg><svg fill="none" viewBox="0 0 73 68" id="sl" xmlns="http://www.w3.org/2000/svg"><g filter="url(#ifilter0_d)" fill-rule="evenodd" clip-rule="evenodd"><path d="M31.808 47.127l10.65 9.143-.887-17.128-.296-1.428 1.479-.858 17.715-9.428H43.346l-2.071-.372-.592-2.2-.887-14-9.467 15.43-.591 1.142h-1.775l-17.63.623 10.799 8.805 1.63 1.473-.716 1.385L12.302 55.7l16.252-8.86 1.775-1.143 1.48 1.429z" fill="#D50000"/><path d="M68.49 24.857H43.345l-.887-16.286L42.162 2l-3.55 5.714-10.65 17.143H4L7.254 28l.296.286 11.537 10L8.733 55.143 4.592 62l7.1-4.286 17.75-10.571 11.832 10.286 3.846 3.142-.296-4.857-.887-16.857 14.2-8.286 10.353-5.714zM41.275 37.714l1.479-.857L59.024 28H40.98l-.296-2.571-.888-14L30.33 26.57 29.442 28H11.1l10.354 8.857 1.775 1.429-1.183 2L13.17 54.57l15.383-9.142 1.775-1.143 1.48 1.428 10.353 9.143-.887-15.428v-1.715z" fill="#fff"/></g><defs><filter id="ifilter0_d" x="0" y="0" width="72.49" height="68" filterUnits="userSpaceOnUse" color-interpolation-filters="sRGB"><feFlood flood-opacity="0" result="BackgroundImageFix"/><feColorMatrix in="SourceAlpha" values="0 0 0 0 0 0 0 0 0 0 0 0 0 0 0 0 0 0 127 0"/><feOffset dy="2"/><feGaussianBlur stdDeviation="2"/><feColorMatrix values="0 0 0 0 0 0 0 0 0 0 0 0 0 0 0 0 0 0 0.5 0"/><feBlend in2="BackgroundImageFix" result="effect1_dropShadow"/><feBlend in="SourceGraphic" in2="effect1_dropShadow" result="shape"/></filter></defs></svg><svg fill="none" viewBox="0 0 24 24" id="step-1" xmlns="http://www.w3.org/2000/svg"><path fill-rule="evenodd" clip-rule="evenodd" d="M7.5 21.75a.75.75 0 01.75-.75h7.5a.75.75 0 010 1.5h-7.5a.75.75 0 01-.75-.75z" fill="#fff"/><path fill-rule="evenodd" clip-rule="evenodd" d="M12 15a.75.75 0 01.75.75v6a.75.75 0 01-1.5 0v-6A.75.75 0 0112 15z" fill="#fff"/><path fill-rule="evenodd" clip-rule="evenodd" d="M17.244 1.5a1.5 1.5 0 011.5 1.5h-.75l.75-.001c.002 1.191.006 5.127.006 7.501 0 1.841-1.18 3.349-2.508 4.353-1.325 1.003-2.98 1.647-4.244 1.647-1.264 0-2.919-.644-4.244-1.647-1.326-1.004-2.506-2.512-2.506-4.353l.003-3.747.003-3.743v-.002a1.5 1.5 0 011.5-1.496v.75-.75l10.49-.012zm0 1.5l-10.49.012-.003 3.74v.003L6.748 10.5c0 1.172.766 2.29 1.912 3.157C9.807 14.526 11.152 15 11.998 15c.846 0 2.191-.474 3.34-1.343 1.146-.868 1.912-1.985 1.912-3.157 0-2.373-.004-6.31-.006-7.499V3z" fill="#fff"/><path fill-rule="evenodd" clip-rule="evenodd" d="M1.5 4.5a.75.75 0 01.75-.75H6a.75.75 0 010 1.5H3c0 1.154.354 2.32.93 3.177C4.51 9.289 5.245 9.75 6 9.75a.75.75 0 010 1.5c-1.422 0-2.563-.87-3.314-1.986C1.933 8.144 1.5 6.684 1.5 5.25V4.5zm15.75 0a.75.75 0 01.75-.75h3.75a.75.75 0 01.75.75v.75c0 1.434-.433 2.894-1.186 4.014-.75 1.116-1.892 1.986-3.314 1.986a.75.75 0 010-1.5c.756 0 1.49-.461 2.07-1.323.576-.858.93-2.023.93-3.177h-3a.75.75 0 01-.75-.75z" fill="#fff"/></svg><svg fill="none" viewBox="0 0 24 24" id="step-2" xmlns="http://www.w3.org/2000/svg"><path d="M22.227 3.818A3.117 3.117 0 0119.113.704V0H4.886v.704a3.117 3.117 0 01-3.113 3.114h-.705v4.685c0 3.366 1.014 6.607 2.933 9.374a16.374 16.374 0 007.752 6.03L12 24l.247-.092a16.373 16.373 0 007.752-6.031 16.373 16.373 0 002.933-9.374V3.818h-.705zm-.704 4.685a14.97 14.97 0 01-2.682 8.57A14.967 14.967 0 0112 22.494a14.967 14.967 0 01-6.841-5.42 14.97 14.97 0 01-2.682-8.57v-3.33A4.534 4.534 0 006.241 1.41h11.518a4.534 4.534 0 003.764 3.763v3.33z" fill="#757C84"/><path d="M15.143 6.618l-4.663 4.663-1.624-1.624-2.988 2.99 4.612 4.612 7.652-7.652-2.989-2.989zM7.86 12.646l.996-.996 1.624 1.624 4.663-4.663.996.996-5.659 5.66-2.62-2.62z" fill="#757C84"/></svg><svg fill="none" viewBox="0 0 24 24" id="step-3" xmlns="http://www.w3.org/2000/svg"><path d="M21.516 2.603a2.147 2.147 0 00-.147 0h-1.85v-1.59C19.518.375 18.91 0 18.274 0h-1.706c-.636 0-1.099.376-1.099 1.012v1.59H8.53v-1.59C8.53.376 8.068 0 7.432 0H5.725C5.09 0 4.482.376 4.482 1.012v1.59h-1.85A2.14 2.14 0 00.434 4.83v16.713C.434 22.814 1.359 24 2.63 24h18.74c1.272 0 2.198-1.186 2.198-2.458V4.83a2.14 2.14 0 00-2.05-2.226zM16.57 1.157h1.793v3.18H16.57v-3.18zm-10.843 0h1.648v3.18H5.726v-3.18zM22.41 21.542c0 .636-.405 1.301-1.041 1.301H2.632c-.637 0-1.041-.665-1.041-1.3V9.252H22.41v12.29zm0-16.713v3.267H1.59V4.83a.983.983 0 011.041-1.07h1.851v.636c0 .636.607 1.099 1.243 1.099h1.707a1.07 1.07 0 001.098-1.1V3.76h6.94v.636a1.07 1.07 0 001.099 1.099h1.706c.636 0 1.243-.463 1.243-1.099V3.76h1.85a.983.983 0 011.042 1.07z" fill="#757C84"/><path d="M8.79 17.147l-.52 2.892a.578.578 0 00.839.607l2.602-1.36 2.603 1.36.26.057a.549.549 0 00.347-.115.579.579 0 00.231-.55l-.52-2.891 2.11-2.024a.636.636 0 00.145-.607.607.607 0 00-.463-.376l-2.891-.434-1.301-2.631a.578.578 0 00-1.041 0l-1.301 2.63-2.892.435a.607.607 0 00-.463.376.636.636 0 00.145.607l2.11 2.024zm1.591-2.342a.52.52 0 00.405-.318l.925-1.85.925 1.85c.07.17.224.29.405.318l2.053.289-1.474 1.417a.607.607 0 00-.174.52l.347 2.053-1.822-.983-.26-.058-.26.058-1.822.983.347-2.053a.607.607 0 00-.173-.52l-1.475-1.417 2.053-.29z" fill="#757C84"/></svg><svg fill="none" viewBox="0 0 26 30" id="tickets-icon" xmlns="http://www.w3.org/2000/svg"><path d="M15.288 7.914l-.416-.104v-.207l.416.31z" fill="#fff"/><path fill-rule="evenodd" clip-rule="evenodd" d="M14.838 30L26 13.968l-3.056-1.96-.24.327c-.378.555-.997.947-1.683 1.077a2.79 2.79 0 01-1.992-.359 2.499 2.499 0 01-1.133-1.6 2.47 2.47 0 01.378-1.893l.171-.327-1.58-1.012-.24-.163-.515-.327-.79-.49-2.129 3.07L4.16 23.273l3.125 1.96.24-.327c.378-.555.996-.947 1.683-1.078a2.82 2.82 0 011.991.36 2.5 2.5 0 011.134 1.6 2.47 2.47 0 01-.378 1.893l-.24.36L14.838 30zm7.042-12.05l-.481.686-1.168-.751.481-.686 1.168.751zm-2.37-.49l.48-.686-1.167-.75-.48.685 1.167.751zm-1.375-1.894l-.48.686-1.168-.75.48-.687 1.168.751zm-2.368-.49l.481-.685-1.168-.751-.48.685 1.167.751zm-2.577-2.611l1.167.75-.48.687-1.168-.752.48-.685z" fill="#fff"/><path fill-rule="evenodd" clip-rule="evenodd" d="M7.479 16.753L15.302 5.64l1.413 1.023.965-3.397-3.618-.957-.104.396a2.493 2.493 0 01-1.24 1.517c-.621.33-1.31.396-2 .231a2.55 2.55 0 01-1.62-1.187c-.344-.56-.413-1.253-.24-1.913L8.96.956 5.342 0 0 18.699l3.619.956.103-.396c.414-1.319 1.827-2.143 3.24-1.78h.034l.483-.726zm-1.344-9.96l.207-.79-1.378-.363-.242.791 1.413.363zm4.342 1.155l.207-.791-1.379-.363-.241.791 1.413.363zm-1.93-1.353L7.17 6.232l-.242.792 1.38.363.24-.792zm2.757 1.583l.242-.791 1.378.362-.241.792-1.379-.363z" fill="#fff"/></svg><svg fill="none" viewBox="0 0 30 30" id="twitch-icon" xmlns="http://www.w3.org/2000/svg"><path d="M15.333 10.201v4.844h-1.618V10.2h1.618zm4.442 0v4.844h-1.618V10.2h1.618zm0 8.482l2.824-2.835V6.976H9.273v11.707h3.638v2.422l2.422-2.422h4.442zm4.442-13.326v11.306l-4.844 4.844h-3.638l-2.422 2.422h-2.422v-2.422H6.45V8.583l1.217-3.226h16.551z" fill="#fff"/></svg><svg fill="none" viewBox="0 0 30 30" id="twitter-icon" xmlns="http://www.w3.org/2000/svg"><path d="M25.497 8.293a9.062 9.062 0 01-2.17 2.237 12.357 12.357 0 01-.495 4.045 12.467 12.467 0 01-1.553 3.32 13.071 13.071 0 01-2.465 2.827c-.955.812-2.107 1.464-3.455 1.955-1.348.482-2.79.723-4.326.723-2.42 0-4.634-.647-6.643-1.942.313.036.66.054 1.045.054 2.009 0 3.799-.616 5.37-1.848a4.24 4.24 0 01-2.518-.858 4.267 4.267 0 01-1.526-2.142c.294.044.567.066.817.066.384 0 .763-.049 1.138-.147-1-.205-1.83-.7-2.491-1.486a4.223 4.223 0 01-.978-2.76v-.053c.607.34 1.26.522 1.956.55a4.32 4.32 0 01-1.407-1.541 4.215 4.215 0 01-.522-2.062c0-.786.196-1.514.59-2.183a12.365 12.365 0 003.937 3.2 12.164 12.164 0 004.982 1.326 4.807 4.807 0 01-.107-.99c0-1.197.42-2.215 1.259-3.054.848-.849 1.87-1.273 3.067-1.273 1.25 0 2.303.456 3.16 1.366a8.482 8.482 0 002.746-1.044c-.33 1.027-.964 1.821-1.902 2.384a8.62 8.62 0 002.491-.67z" fill="#fff"/></svg><svg fill="none" viewBox="0 0 30 30" id="vk-icon" xmlns="http://www.w3.org/2000/svg"><path d="M27.342 8.35c.176-.587 0-1.017-.834-1.017h-2.764c-.704 0-1.025.372-1.201.78 0 0-1.406 3.427-3.397 5.65-.643.646-.936.85-1.287.85-.175 0-.43-.204-.43-.79V8.349c0-.703-.202-1.016-.788-1.016h-4.343c-.439 0-.704.326-.704.636 0 .665.996.819 1.098 2.694v4.068c0 .891-.16 1.054-.513 1.054-.936 0-3.215-3.44-4.567-7.377-.264-.765-.53-1.073-1.235-1.073H3.614c-.79 0-.947.371-.947.78 0 .733.936 4.363 4.361 9.163 2.284 3.278 5.499 5.055 8.428 5.055 1.756 0 1.972-.394 1.972-1.075v-2.477c0-.79.168-.948.724-.948.408 0 1.111.207 2.75 1.786 1.874 1.872 2.184 2.713 3.236 2.713h2.763c.789 0 1.183-.394.956-1.173-.248-.775-1.143-1.903-2.33-3.238-.645-.761-1.61-1.58-1.903-1.99-.41-.528-.291-.761 0-1.23.001.001 3.367-4.74 3.718-6.352z" fill="#fff"/></svg></svg>